<mxfile host="app.diagrams.net">
  <diagram name="Flödesschema - WindChill" id="0YDRgNaDyYzk0GnS-j6P">
    <mxGraphModel dx="1422" dy="794" grid="1" gridSize="10" guides="1" tooltips="1" connect="1" arrows="1" fold="1" page="1" pageScale="1" pageWidth="850" pageHeight="1100">
      <root>
        <mxCell id="0"/>
        <mxCell id="1" parent="0"/>

        <!-- Start -->
        <mxCell id="start" value="Start" style="ellipse;whiteSpace=wrap;html=1;" vertex="1" parent="1">
          <mxGeometry x="300" y="20" width="120" height="60" as="geometry"/>
        </mxCell>

        <!-- Visa meny -->
        <mxCell id="menu" value="Visa meny:&#xa;1. Beräkna Windchill&#xa;2. Avsluta" style="rounded=1;whiteSpace=wrap;html=1;" vertex="1" parent="1">
          <mxGeometry x="260" y="100" width="200" height="70" as="geometry"/>
        </mxCell>

        <!-- Läs in val -->
        <mxCell id="readInput" value="Läs in användarens val" style="rounded=1;whiteSpace=wrap;html=1;" vertex="1" parent="1">
          <mxGeometry x="260" y="190" width="200" height="60" as="geometry"/>
        </mxCell>

        <!-- Val == 1? -->
        <mxCell id="check1" value="Val == 1?" style="rhombus;whiteSpace=wrap;html=1;" vertex="1" parent="1">
          <mxGeometry x="260" y="270" width="120" height="80" as="geometry"/>
        </mxCell>

        <!-- Anropa funktion -->
        <mxCell id="callFunc" value="Anropa CalculateWindChill" style="rounded=1;whiteSpace=wrap;html=1;" vertex="1" parent="1">
          <mxGeometry x="60" y="270" width="180" height="60" as="geometry"/>
        </mxCell>

        <!-- Val == 2? -->
        <mxCell id="check2" value="Val == 2?" style="rhombus;whiteSpace=wrap;html=1;" vertex="1" parent="1">
          <mxGeometry x="400" y="270" width="120" height="80" as="geometry"/>
        </mxCell>

        <!-- Skriv ut: Programmet avslutas -->
        <mxCell id="exit" value="Skriv ut:&#xa;Programmet avslutas&#xa;Sätt running = false" style="rounded=1;whiteSpace=wrap;html=1;" vertex="1" parent="1">
          <mxGeometry x="550" y="250" width="200" height="90" as="geometry"/>
        </mxCell>

        <!-- Ogiltigt val -->
        <mxCell id="invalid" value="Skriv ut:&#xa;Ogiltigt val" style="rounded=1;whiteSpace=wrap;html=1;" vertex="1" parent="1">
          <mxGeometry x="550" y="360" width="200" height="60" as="geometry"/>
        </mxCell>

        <!-- Gå tillbaka till meny -->
        <mxCell id="backToMenu" value="Gå tillbaka till meny" style="rounded=1;whiteSpace=wrap;html=1;" vertex="1" parent="1">
          <mxGeometry x="260" y="400" width="200" height="60" as="geometry"/>
        </mxCell>

        <!-- Slut -->
        <mxCell id="end" value="Slut" style="ellipse;whiteSpace=wrap;html=1;" vertex="1" parent="1">
          <mxGeometry x="300" y="500" width="120" height="60" as="geometry"/>
        </mxCell>

        <!-- Edges -->
        <mxCell id="e1" style="edgeStyle=orthogonalEdgeStyle;rounded=0;" edge="1" parent="1" source="start" target="menu"><mxGeometry relative="1" as="geometry"/></mxCell>
        <mxCell id="e2" style="edgeStyle=orthogonalEdgeStyle;rounded=0;" edge="1" parent="1" source="menu" target="readInput"><mxGeometry relative="1" as="geometry"/></mxCell>
        <mxCell id="e3" style="edgeStyle=orthogonalEdgeStyle;rounded=0;" edge="1" parent="1" source="readInput" target="check1"><mxGeometry relative="1" as="geometry"/></mxCell>
        <mxCell id="e4" style="endArrow=block;" edge="1" parent="1" source="check1" target="callFunc"><mxGeometry relative="1" as="geometry"><mxPoint x="190" y="270" as="targetPoint"/></mxGeometry></mxCell>
        <mxCell id="e5" style="endArrow=block;" edge="1" parent="1" source="check1" target="check2"><mxGeometry relative="1" as="geometry"/></mxCell>
        <mxCell id="e6" style="endArrow=block;" edge="1" parent="1" source="check2" target="exit"><mxGeometry relative="1" as="geometry"/></mxCell>
        <mxCell id="e7" style="endArrow=block;" edge="1" parent="1" source="check2" target="invalid"><mxGeometry relative="1" as="geometry"/></mxCell>
        <mxCell id="e8" style="endArrow=block;" edge="1" parent="1" source="exit" target="end"><mxGeometry relative="1" as="geometry"/></mxCell>
        <mxCell id="e9" style="endArrow=block;" edge="1" parent="1" source="invalid" target="backToMenu"><mxGeometry relative="1" as="geometry"/></mxCell>
        <mxCell id="e10" style="endArrow=block;" edge="1" parent="1" source="callFunc" target="backToMenu"><mxGeometry relative="1" as="geometry"/></mxCell>
        <mxCell id="e11" style="endArrow=block;" edge="1" parent="1" source="backToMenu" target="menu"><mxGeometry relative="1" as="geometry"/></mxCell>
      </root>
    </mxGraphModel>
  </diagram>
</mxfile>
